<?xml version="1.0" encoding="UTF-8"?><svg id="Calque_1" xmlns="http://www.w3.org/2000/svg" viewBox="0 0 498.92 115.49"><defs><style>.cls-1{fill:#3b5da8;}.cls-2{fill:#0e3a53;}</style></defs><path class="cls-2" d="M97.41,50.1h-10.18c-.32,0-.56.29-.48.61.51,2.24.77,4.59.77,7.04,0,5.41-1.29,10.38-3.88,14.89-2.59,4.51-6.08,8.09-10.47,10.74-4.39,2.65-9.29,3.97-14.71,3.97s-10.32-1.32-14.71-3.97c-4.39-2.65-7.88-6.23-10.47-10.74-2.59-4.51-3.88-9.47-3.88-14.89s1.29-10.53,3.88-14.98c2.59-4.45,6.07-8,10.47-10.65,4.39-2.64,9.29-3.97,14.71-3.97,2.59,0,5.05.31,7.4.91.32.08.62-.15.62-.48V.5C63.88.17,61.21,0,58.47,0,47.76,0,37.96,2.59,29.05,7.76c-8.9,5.18-15.97,12.12-21.2,20.84C2.62,37.33,0,47.04,0,57.75s2.62,20.27,7.85,29.05c5.23,8.78,12.3,15.76,21.2,20.93,8.9,5.17,18.71,7.76,29.41,7.76s20.66-2.59,29.5-7.76c8.84-5.17,15.88-12.15,21.11-20.93,5.23-8.78,7.85-18.47,7.85-29.05,0-2.61-.16-5.16-.47-7.65h-19.05Z"/><polygon class="cls-1" points="100.55 17.56 99.7 17.56 97.42 17.56 97.42 15.49 97.42 14.57 97.42 0 77.89 0 77.89 3.14 77.89 3.69 77.89 35.63 77.89 38.69 80.8 38.69 97.41 38.69 97.42 38.69 113.61 38.69 113.81 38.69 116.93 38.69 116.93 17.56 100.55 17.56"/><path class="cls-2" d="M154.28,59.48V18.63h11.85v40.85h-11.85Z"/><path class="cls-2" d="M333.64,60.84c-4.04,0-7.74-.98-11.1-2.93-3.36-1.95-6.03-4.58-8-7.9-1.97-3.31-2.96-6.97-2.96-10.96s.99-7.7,2.96-11c1.97-3.29,4.64-5.91,8-7.86,3.36-1.95,7.06-2.93,11.1-2.93s7.8.98,11.13,2.93c3.34,1.95,5.99,4.57,7.97,7.86,1.97,3.29,2.96,6.96,2.96,11s-.99,7.65-2.96,10.96c-1.97,3.31-4.63,5.95-7.97,7.9-3.34,1.95-7.05,2.93-11.13,2.93ZM333.64,50.22c2.04,0,3.89-.5,5.55-1.5,1.66-1,2.97-2.35,3.95-4.05.98-1.7,1.46-3.57,1.46-5.62s-.49-3.97-1.46-5.65c-.98-1.68-2.29-3.02-3.95-4.02-1.66-1-3.51-1.5-5.55-1.5s-3.89.5-5.55,1.5c-1.66,1-2.97,2.34-3.95,4.02-.98,1.68-1.46,3.56-1.46,5.65s.49,3.92,1.46,5.62c.98,1.7,2.29,3.05,3.95,4.05,1.66,1,3.51,1.5,5.55,1.5Z"/><path class="cls-2" d="M301.35,21.72c-3.52-3.06-7.91-4.59-13.17-4.59s-9.32,1.43-12.83,4.24c-3.45-2.82-7.68-4.24-12.73-4.24s-9.69,1.53-13.28,4.59c-3.5,3.04-5.25,7.43-5.25,13.18v24.61h11.5v-23.57c0-2.53.63-4.43,1.88-5.69,1.25-1.26,2.97-1.9,5.15-1.9s3.89.63,5.13,1.9c1.24,1.26,1.86,3.16,1.86,5.69v23.57h11.53v-23.57c0-2.53.63-4.43,1.88-5.69,1.25-1.26,2.97-1.9,5.15-1.9s3.89.63,5.13,1.9c1.24,1.26,1.86,3.16,1.86,5.69v23.57h11.5v-24.61c0-5.78-1.77-10.17-5.32-13.18Z"/><path class="cls-2" d="M231.6,21.72c-3.52-3.06-7.91-4.59-13.17-4.59s-9.32,1.43-12.83,4.24c-3.45-2.82-7.68-4.24-12.73-4.24s-9.69,1.53-13.28,4.59c-3.5,3.04-5.25,7.43-5.25,13.18v24.61h11.5v-23.57c0-2.53.63-4.43,1.88-5.69,1.25-1.26,2.97-1.9,5.15-1.9s3.89.63,5.13,1.9c1.24,1.26,1.86,3.16,1.86,5.69v23.57h11.53v-23.57c0-2.53.63-4.43,1.88-5.69,1.25-1.26,2.97-1.9,5.15-1.9s3.89.63,5.13,1.9c1.24,1.26,1.86,3.16,1.86,5.69v23.57h11.5v-24.61c0-5.78-1.77-10.17-5.32-13.18Z"/><path class="cls-1" d="M160.2,12.71c-1.77,0-3.27-.61-4.49-1.84-1.23-1.23-1.84-2.72-1.84-4.49s.61-3.32,1.84-4.53c1.23-1.2,2.72-1.8,4.49-1.8s3.32.6,4.53,1.8c1.2,1.2,1.8,2.71,1.8,4.53s-.6,3.27-1.8,4.49c-1.2,1.22-2.71,1.84-4.53,1.84Z"/><path class="cls-1" d="M448.92,115.45c-1.35,0-2.48-.45-3.38-1.36-.91-.91-1.36-2.04-1.36-3.38s.45-2.47,1.36-3.38,2.04-1.36,3.38-1.36,2.51.45,3.41,1.36c.89.91,1.34,2.04,1.34,3.38s-.45,2.48-1.34,3.38c-.89.91-2.03,1.36-3.41,1.36Z"/><path class="cls-2" d="M470.27,115.28c-2.43,0-4.64-.63-6.64-1.89-1.99-1.26-3.58-2.94-4.77-5.03-1.19-2.09-1.78-4.42-1.78-6.96s.59-4.88,1.78-6.99c1.19-2.11,2.78-3.79,4.77-5.03,1.99-1.25,4.2-1.87,6.64-1.87,1.7,0,3.25.3,4.66.9,1.41.6,2.61,1.43,3.6,2.48v-2.68h6.59v26.37h-6.59v-2.68c-1,1.05-2.2,1.88-3.6,2.48-1.41.6-2.96.9-4.66.9ZM471.2,108.55c1.29,0,2.46-.32,3.52-.97,1.05-.64,1.9-1.51,2.53-2.59.63-1.08.94-2.29.94-3.6s-.32-2.52-.94-3.6c-.63-1.08-1.47-1.95-2.53-2.59-1.05-.64-2.23-.97-3.52-.97s-2.46.32-3.52.97c-1.05.64-1.9,1.51-2.53,2.59-.63,1.08-.94,2.28-.94,3.6s.31,2.52.94,3.6c.63,1.08,1.47,1.95,2.53,2.59,1.05.64,2.23.97,3.52.97Z"/><path class="cls-2" d="M491.01,114.57v-26.37h7.65v26.37h-7.65Z"/><path class="cls-2" d="M175.93,115.37c-4.04,0-7.74-.98-11.1-2.93-3.36-1.95-6.03-4.58-8-7.9-1.97-3.31-2.96-6.97-2.96-10.96s.99-7.7,2.96-11c1.97-3.29,4.64-5.91,8-7.86,3.36-1.95,7.06-2.93,11.1-2.93,2.81,0,5.48.47,8,1.4,2.52.93,4.75,2.3,6.71,4.12l-3.06,12.05c-1.14-1.86-2.64-3.48-4.53-4.87-1.88-1.38-4.1-2.08-6.64-2.08-2.13,0-4.04.5-5.72,1.5-1.68,1-3,2.34-3.95,4.02-.95,1.68-1.43,3.56-1.43,5.65s.48,3.92,1.43,5.62c.95,1.7,2.27,3.05,3.95,4.05,1.68,1,3.58,1.5,5.72,1.5,2.54,0,4.75-.69,6.64-2.08,1.88-1.38,3.39-3.01,4.53-4.87l3.06,12.05c-1.95,1.82-4.19,3.19-6.71,4.12-2.52.93-5.19,1.4-8,1.4Z"/><path class="cls-2" d="M215.31,115.37c-4.04,0-7.74-.98-11.1-2.93-3.36-1.95-6.03-4.58-8-7.9-1.97-3.31-2.96-6.97-2.96-10.96s.99-7.7,2.96-11c1.97-3.29,4.64-5.91,8-7.86,3.36-1.95,7.06-2.93,11.1-2.93s7.8.98,11.13,2.93c3.34,1.95,5.99,4.57,7.97,7.86,1.97,3.29,2.96,6.96,2.96,11s-.99,7.65-2.96,10.96c-1.97,3.31-4.63,5.95-7.97,7.9-3.34,1.95-7.05,2.93-11.13,2.93ZM215.31,104.75c2.04,0,3.89-.5,5.55-1.5,1.66-1,2.97-2.35,3.95-4.05.98-1.7,1.46-3.57,1.46-5.62s-.49-3.97-1.46-5.65c-.98-1.68-2.29-3.02-3.95-4.02-1.66-1-3.51-1.5-5.55-1.5s-3.89.5-5.55,1.5c-1.66,1-2.97,2.34-3.95,4.02-.98,1.68-1.46,3.56-1.46,5.65s.49,3.92,1.46,5.62c.98,1.7,2.29,3.05,3.95,4.05,1.66,1,3.51,1.5,5.55,1.5Z"/><path class="cls-2" d="M396.97,115.37c-4.04,0-7.74-.98-11.1-2.93-3.36-1.95-6.03-4.58-8-7.9-1.97-3.31-2.96-6.97-2.96-10.96s.99-7.7,2.96-11c1.97-3.29,4.64-5.91,8-7.86,3.36-1.95,7.06-2.93,11.1-2.93,2.81,0,5.48.47,8,1.4,2.52.93,4.75,2.3,6.71,4.12l-3.06,12.05c-1.14-1.86-2.64-3.48-4.53-4.87-1.88-1.38-4.1-2.08-6.64-2.08-2.13,0-4.04.5-5.72,1.5-1.68,1-3,2.34-3.95,4.02-.95,1.68-1.43,3.56-1.43,5.65s.48,3.92,1.43,5.62c.95,1.7,2.27,3.05,3.95,4.05,1.68,1,3.58,1.5,5.72,1.5,2.54,0,4.75-.69,6.64-2.08,1.88-1.38,3.39-3.01,4.53-4.87l3.06,12.05c-1.95,1.82-4.19,3.19-6.71,4.12-2.52.93-5.19,1.4-8,1.4Z"/><path class="cls-2" d="M352.94,115.41c-4.59,0-8.64-.95-12.14-2.87-3.5-1.91-6.23-4.54-8.19-7.88-1.96-3.34-2.93-7.17-2.93-11.5s.95-7.81,2.87-11.02c1.91-3.21,4.49-5.74,7.74-7.61,3.25-1.86,6.86-2.8,10.81-2.8s7.66.92,10.85,2.76c3.18,1.84,5.7,4.36,7.54,7.54,1.84,3.18,2.76,6.8,2.76,10.85v4.16h-31.38c.55,2.73,1.9,4.26,4.06,5.97,2.16,1.71,4.92,2.56,8.29,2.56,2.59,0,4.92-.52,6.99-1.57,2.07-1.05,3.76-2.34,5.08-3.89l2.59,10.64c-2.05,1.55-4.36,2.71-6.92,3.48-2.57.77-5.24,1.16-8.02,1.16ZM340.59,89.08h20.74c-.68-2.46-1.92-4.39-3.72-5.8-1.8-1.41-4.01-2.11-6.65-2.11-2.5,0-4.67.72-6.52,2.15-1.84,1.43-3.13,3.26-3.85,5.76Z"/><path class="cls-2" d="M416.45,74.94v-15.11h11.36v13.42h8.76v9.56h-8.76v16.8c0,1.86.4,3.2,1.19,4.02.79.82,2.07,1.22,3.83,1.22.79,0,1.79-.1,2.98-.31v10.33c-1.58.38-3.49.57-5.74.57-9.08,0-13.62-4.7-13.62-14.12v-15.84"/><path class="cls-2" d="M243.13,89.57v24.67h11.5v-23.63c0-2.54.63-4.44,1.88-5.71,1.25-1.27,2.97-1.9,5.15-1.9s3.89.63,5.13,1.9c1.24,1.27,1.86,3.17,1.86,5.71v23.63h11.5v-24.67c0-5.79-1.77-10.2-5.32-13.22-3.52-3.07-7.91-4.6-13.17-4.6s-9.69,1.54-13.28,4.6c-3.5,3.04-5.25,7.45-5.25,13.22Z"/><path class="cls-2" d="M287.27,89.57v24.67h11.5v-23.63c0-2.54.63-4.44,1.88-5.71,1.25-1.27,2.97-1.9,5.15-1.9s3.89.63,5.13,1.9c1.24,1.27,1.86,3.17,1.86,5.71v23.63h11.5v-24.67c0-5.79-1.77-10.2-5.32-13.22-3.52-3.07-7.91-4.6-13.17-4.6s-9.69,1.54-13.28,4.6c-3.5,3.04-5.25,7.45-5.25,13.22Z"/><path class="cls-1" d="M494.84,84.38c-1.14,0-2.11-.4-2.9-1.19s-1.19-1.76-1.19-2.9.4-2.15,1.19-2.92c.79-.78,1.76-1.16,2.9-1.16s2.15.39,2.92,1.16c.78.78,1.16,1.75,1.16,2.92s-.39,2.11-1.16,2.9c-.78.79-1.75,1.19-2.92,1.19Z"/></svg>